<?xml version="1.0" standalone="no"?>
<!DOCTYPE svg PUBLIC "-//W3C//DTD SVG 20010904//EN"
 "http://www.w3.org/TR/2001/REC-SVG-20010904/DTD/svg10.dtd">
<svg version="1.0" xmlns="http://www.w3.org/2000/svg"
 width="1280.000000pt" height="1280.000000pt" viewBox="0 0 1280.000000 1280.000000"
 preserveAspectRatio="xMidYMid meet">
<metadata>
Created by potrace 1.16, written by Peter Selinger 2001-2019
</metadata>
<g transform="translate(0.000000,1280.000000) scale(0.100000,-0.100000)"
fill="#00B540" stroke="none">
<path d="M6895 8667 c-73 -20 -124 -49 -176 -104 -76 -78 -94 -122 -94 -228 0
-78 4 -97 28 -147 36 -74 119 -150 195 -178 74 -29 196 -31 262 -5 100 40 178
119 215 217 25 67 18 195 -15 258 -35 68 -119 144 -186 170 -72 27 -164 33
-229 17z"/>
<path d="M7800 8666 c-105 -30 -188 -96 -237 -188 -25 -47 -28 -64 -28 -148 0
-87 3 -100 30 -148 16 -30 53 -76 82 -102 72 -66 143 -92 250 -92 71 0 92 4
145 29 77 36 138 95 174 165 36 70 44 182 19 257 -56 170 -259 276 -435 227z"/>
<path d="M2117 7734 c-112 -17 -281 -74 -375 -126 -266 -147 -483 -401 -586
-686 -51 -144 -69 -260 -70 -457 -1 -248 27 -390 103 -515 56 -94 64 -92 174
27 50 54 158 166 240 250 105 106 148 156 144 167 -4 9 -11 16 -16 16 -19 0
-51 68 -51 108 0 49 33 93 94 124 35 19 65 23 196 28 137 6 162 10 211 32 85
39 81 46 -24 41 -117 -5 -136 5 -87 47 47 40 73 47 229 65 83 10 161 25 205
41 136 48 142 49 194 34 102 -29 119 -27 258 38 167 77 221 94 307 96 l70 1
18 -65 c40 -141 15 -279 -68 -386 -27 -34 -104 -128 -173 -210 -305 -363 -529
-719 -660 -1048 -40 -101 -46 -139 -24 -161 16 -15 30 -17 111 -12 195 13 397
72 514 150 55 36 137 117 171 167 16 24 17 20 17 -107 1 -86 -4 -156 -15 -200
-46 -201 -212 -358 -454 -429 -98 -29 -407 -26 -537 4 -187 44 -318 104 -454
207 -60 45 -80 55 -112 55 -45 0 -33 11 -237 -214 -69 -76 -127 -145 -128
-153 -7 -29 160 -179 300 -270 311 -202 732 -297 1169 -264 432 32 736 154
969 390 150 150 237 311 282 519 22 96 22 113 25 1372 2 701 -1 1281 -5 1288
-15 22 -138 34 -301 30 -137 -4 -164 -8 -223 -30 -38 -14 -89 -43 -114 -64
-55 -44 -116 -135 -139 -205 -9 -27 -20 -49 -25 -49 -4 0 -26 24 -48 54 -81
106 -249 209 -427 261 -181 53 -455 69 -648 39z"/>
<path d="M5720 7739 c-131 -13 -268 -51 -380 -106 -75 -38 -111 -64 -180 -130
-47 -46 -88 -83 -92 -83 -4 0 -23 24 -41 53 -69 107 -180 180 -327 214 -55 12
-123 17 -255 17 l-180 1 -3 -1297 -2 -1298 399 0 c354 0 400 2 405 16 3 9 6
325 6 703 0 652 1 692 20 765 52 205 202 359 427 437 74 26 252 59 317 59 28
0 68 3 89 6 l37 7 -2 321 -3 321 -70 1 c-38 1 -113 -2 -165 -7z"/>
<path d="M10460 7739 c-155 -19 -317 -73 -419 -139 -64 -42 -146 -118 -198
-184 l-30 -40 -37 71 c-112 214 -282 294 -591 279 -71 -3 -140 -9 -152 -12
l-23 -6 0 -1299 0 -1299 400 0 399 0 3 733 c4 719 4 733 26 810 35 127 78 203
157 283 112 112 221 154 405 154 162 0 264 -35 348 -119 59 -59 104 -142 133
-246 21 -77 22 -103 29 -670 5 -324 8 -670 9 -768 l1 -177 398 2 397 3 3 700
c2 452 -1 750 -8 840 -33 413 -159 727 -359 892 -124 102 -291 169 -476 192
-102 12 -317 13 -415 0z"/>
<path d="M6087 7703 c-11 -10 -8 -1416 3 -1548 19 -223 65 -416 135 -571 160
-352 446 -514 905 -514 360 0 660 115 800 307 25 34 48 62 52 62 4 1 25 -37
48 -83 106 -217 247 -295 510 -282 69 3 152 12 185 19 l60 13 3 1302 2 1302
-397 -2 -398 -3 -5 -730 c-6 -703 -7 -733 -27 -805 -55 -197 -148 -319 -296
-389 -83 -39 -148 -51 -270 -51 -265 0 -407 109 -480 369 -21 74 -21 94 -24
821 -2 410 -5 755 -8 768 l-5 22 -394 0 c-216 0 -396 -3 -399 -7z"/>
</g>
</svg>
